<?xml version="1.0" encoding="UTF-8"?>
<!DOCTYPE svg PUBLIC "-//W3C//DTD SVG 1.1//EN" "http://www.w3.org/Graphics/SVG/1.1/DTD/svg11.dtd">
<svg version="1.2" width="135.35mm" height="82.51mm" viewBox="3733 10725 13535 8251" preserveAspectRatio="xMidYMid" fill-rule="evenodd" stroke-width="28.222" stroke-linejoin="round" xmlns="http://www.w3.org/2000/svg" xmlns:ooo="http://xml.openoffice.org/svg/export" xmlns:xlink="http://www.w3.org/1999/xlink" xmlns:presentation="http://sun.com/xmlns/staroffice/presentation" xmlns:smil="http://www.w3.org/2001/SMIL20/" xmlns:anim="urn:oasis:names:tc:opendocument:xmlns:animation:1.0" xml:space="preserve">
 <defs class="EmbeddedBulletChars">
  <g id="bullet-char-template-57356" transform="scale(0.00048828125,-0.00048828125)">
   <path d="M 580,1141 L 1163,571 580,0 -4,571 580,1141 Z"/>
  </g>
  <g id="bullet-char-template-57354" transform="scale(0.00048828125,-0.00048828125)">
   <path d="M 8,1128 L 1137,1128 1137,0 8,0 8,1128 Z"/>
  </g>
  <g id="bullet-char-template-10146" transform="scale(0.00048828125,-0.00048828125)">
   <path d="M 174,0 L 602,739 174,1481 1456,739 174,0 Z M 1358,739 L 309,1346 659,739 1358,739 Z"/>
  </g>
  <g id="bullet-char-template-10132" transform="scale(0.00048828125,-0.00048828125)">
   <path d="M 2015,739 L 1276,0 717,0 1260,543 174,543 174,936 1260,936 717,1481 1274,1481 2015,739 Z"/>
  </g>
  <g id="bullet-char-template-10007" transform="scale(0.00048828125,-0.00048828125)">
   <path d="M 0,-2 C -7,14 -16,27 -25,37 L 356,567 C 262,823 215,952 215,954 215,979 228,992 255,992 264,992 276,990 289,987 310,991 331,999 354,1012 L 381,999 492,748 772,1049 836,1024 860,1049 C 881,1039 901,1025 922,1006 886,937 835,863 770,784 769,783 710,716 594,584 L 774,223 C 774,196 753,168 711,139 L 727,119 C 717,90 699,76 672,76 641,76 570,178 457,381 L 164,-76 C 142,-110 111,-127 72,-127 30,-127 9,-110 8,-76 1,-67 -2,-52 -2,-32 -2,-23 -1,-13 0,-2 Z"/>
  </g>
  <g id="bullet-char-template-10004" transform="scale(0.00048828125,-0.00048828125)">
   <path d="M 285,-33 C 182,-33 111,30 74,156 52,228 41,333 41,471 41,549 55,616 82,672 116,743 169,778 240,778 293,778 328,747 346,684 L 369,508 C 377,444 397,411 428,410 L 1163,1116 C 1174,1127 1196,1133 1229,1133 1271,1133 1292,1118 1292,1087 L 1292,965 C 1292,929 1282,901 1262,881 L 442,47 C 390,-6 338,-33 285,-33 Z"/>
  </g>
  <g id="bullet-char-template-9679" transform="scale(0.00048828125,-0.00048828125)">
   <path d="M 813,0 C 632,0 489,54 383,161 276,268 223,411 223,592 223,773 276,916 383,1023 489,1130 632,1184 813,1184 992,1184 1136,1130 1245,1023 1353,916 1407,772 1407,592 1407,412 1353,268 1245,161 1136,54 992,0 813,0 Z"/>
  </g>
  <g id="bullet-char-template-8226" transform="scale(0.00048828125,-0.00048828125)">
   <path d="M 346,457 C 273,457 209,483 155,535 101,586 74,649 74,723 74,796 101,859 155,911 209,963 273,989 346,989 419,989 480,963 531,910 582,859 608,796 608,723 608,648 583,586 532,535 482,483 420,457 346,457 Z"/>
  </g>
  <g id="bullet-char-template-8211" transform="scale(0.00048828125,-0.00048828125)">
   <path d="M -4,459 L 1135,459 1135,606 -4,606 -4,459 Z"/>
  </g>
  <g id="bullet-char-template-61548" transform="scale(0.00048828125,-0.00048828125)">
   <path d="M 173,740 C 173,903 231,1043 346,1159 462,1274 601,1332 765,1332 928,1332 1067,1274 1183,1159 1299,1043 1357,903 1357,740 1357,577 1299,437 1183,322 1067,206 928,148 765,148 601,148 462,206 346,322 231,437 173,577 173,740 Z"/>
  </g>
 </defs>
 <g class="Page">
  <g class="Group">
   <g class="Group">
    <g class="com.sun.star.drawing.ClosedBezierShape">
     <g id="id3">
      <rect class="BoundingBox" stroke="none" fill="none" x="10971" y="18083" width="789" height="893"/>
      <path fill="rgb(80,147,138)" stroke="none" d="M 11139,18525 C 11139,18639 11159,18724 11199,18779 11240,18834 11301,18862 11382,18862 11439,18862 11487,18848 11525,18820 11564,18793 11587,18750 11596,18693 L 11758,18703 C 11746,18785 11706,18851 11640,18901 11573,18950 11489,18975 11387,18975 11252,18975 11149,18937 11078,18861 11007,18785 10971,18674 10971,18528 10971,18383 11007,18273 11078,18197 11149,18121 11252,18083 11385,18083 11483,18083 11565,18106 11630,18151 11695,18197 11736,18260 11753,18340 L 11588,18351 C 11580,18303 11559,18265 11525,18237 11491,18209 11443,18195 11380,18195 11295,18195 11234,18220 11196,18270 11158,18321 11139,18406 11139,18525 Z"/>
     </g>
    </g>
    <g class="com.sun.star.drawing.ClosedBezierShape">
     <g id="id4">
      <rect class="BoundingBox" stroke="none" fill="none" x="11884" y="18083" width="863" height="893"/>
      <path fill="rgb(80,147,138)" stroke="none" d="M 12746,18528 C 12746,18679 12709,18791 12635,18864 12560,18938 12452,18975 12311,18975 12170,18975 12064,18936 11992,18860 11920,18783 11884,18673 11884,18528 11884,18231 12028,18083 12316,18083 12464,18083 12572,18119 12642,18191 12711,18264 12746,18376 12746,18528 Z M 12578,18528 C 12578,18410 12558,18323 12518,18270 12479,18216 12412,18189 12319,18189 12225,18189 12157,18217 12115,18271 12073,18326 12052,18412 12052,18528 12052,18641 12073,18726 12114,18783 12156,18840 12221,18869 12309,18869 12405,18869 12474,18841 12516,18786 12557,18731 12578,18645 12578,18528 Z"/>
     </g>
    </g>
    <g class="com.sun.star.drawing.ClosedBezierShape">
     <g id="id5">
      <rect class="BoundingBox" stroke="none" fill="none" x="12941" y="18083" width="776" height="877"/>
      <path fill="rgb(80,147,138)" stroke="none" d="M 13555,18959 L 13555,18414 C 13555,18357 13549,18313 13536,18282 13524,18251 13504,18228 13477,18214 13449,18201 13409,18194 13356,18194 13279,18194 13218,18217 13174,18264 13129,18312 13107,18377 13107,18461 L 13107,18959 12946,18959 12946,18283 C 12946,18183 12945,18121 12941,18099 L 13092,18099 C 13093,18102 13094,18109 13094,18121 13095,18132 13096,18146 13096,18161 13097,18176 13098,18204 13100,18246 L 13102,18246 C 13139,18187 13182,18145 13230,18120 13279,18095 13339,18083 13411,18083 13516,18083 13594,18106 13643,18153 13692,18200 13716,18278 13716,18386 L 13716,18959 13555,18959 Z"/>
     </g>
    </g>
    <g class="com.sun.star.drawing.ClosedBezierShape">
     <g id="id6">
      <rect class="BoundingBox" stroke="none" fill="none" x="13954" y="18083" width="777" height="877"/>
      <path fill="rgb(80,147,138)" stroke="none" d="M 14568,18959 L 14568,18414 C 14568,18357 14562,18313 14549,18282 14537,18251 14517,18228 14490,18214 14462,18201 14422,18194 14369,18194 14292,18194 14231,18217 14187,18264 14142,18312 14120,18377 14120,18461 L 14120,18959 13959,18959 13959,18283 C 13959,18183 13958,18121 13954,18099 L 14105,18099 C 14106,18102 14107,18109 14107,18121 14108,18132 14109,18146 14109,18161 14110,18176 14111,18204 14113,18246 L 14115,18246 C 14152,18187 14195,18145 14243,18120 14292,18095 14352,18083 14424,18083 14529,18083 14607,18106 14656,18153 14705,18200 14729,18278 14729,18386 L 14729,18959 14568,18959 Z"/>
     </g>
    </g>
    <g class="com.sun.star.drawing.ClosedBezierShape">
     <g id="id7">
      <rect class="BoundingBox" stroke="none" fill="none" x="14922" y="18083" width="859" height="893"/>
      <path fill="rgb(80,147,138)" stroke="none" d="M 15091,18559 C 15091,18658 15114,18734 15160,18787 15206,18841 15273,18867 15361,18867 15430,18867 15486,18855 15528,18830 15570,18805 15598,18774 15613,18736 L 15754,18772 C 15696,18907 15565,18975 15361,18975 15218,18975 15109,18937 15035,18861 14960,18785 14923,18673 14923,18523 14923,18381 14960,18272 15035,18197 15109,18121 15216,18083 15354,18083 15638,18083 15780,18235 15780,18540 L 15780,18559 15091,18559 Z M 15614,18450 C 15605,18359 15579,18293 15536,18252 15493,18210 15432,18189 15352,18189 15274,18189 15212,18212 15167,18259 15121,18305 15097,18369 15093,18450 L 15614,18450 Z"/>
     </g>
    </g>
    <g class="com.sun.star.drawing.ClosedBezierShape">
     <g id="id8">
      <rect class="BoundingBox" stroke="none" fill="none" x="15937" y="18083" width="788" height="893"/>
      <path fill="rgb(80,147,138)" stroke="none" d="M 16105,18525 C 16105,18639 16125,18724 16165,18779 16206,18834 16267,18862 16348,18862 16405,18862 16453,18848 16491,18820 16530,18793 16553,18750 16562,18693 L 16724,18703 C 16712,18785 16672,18851 16606,18901 16539,18950 16455,18975 16353,18975 16218,18975 16115,18937 16044,18861 15973,18785 15937,18674 15937,18528 15937,18383 15973,18273 16044,18197 16115,18121 16218,18083 16351,18083 16449,18083 16531,18106 16596,18151 16661,18197 16702,18260 16719,18340 L 16554,18351 C 16546,18303 16525,18265 16491,18237 16457,18209 16409,18195 16346,18195 16261,18195 16200,18220 16162,18270 16124,18321 16105,18406 16105,18525 Z"/>
     </g>
    </g>
    <g class="com.sun.star.drawing.ClosedBezierShape">
     <g id="id9">
      <rect class="BoundingBox" stroke="none" fill="none" x="16801" y="17907" width="467" height="1066"/>
      <path fill="rgb(80,147,138)" stroke="none" d="M 17267,18953 C 17214,18965 17160,18972 17105,18972 16977,18972 16912,18907 16912,18777 L 16912,18203 16801,18203 16801,18100 16919,18100 16966,17907 17073,17907 17073,18100 17251,18100 17251,18203 17073,18203 17073,18746 C 17073,18787 17080,18816 17095,18833 17111,18849 17137,18858 17174,18858 17196,18858 17227,18854 17267,18846 L 17267,18953 Z"/>
     </g>
    </g>
   </g>
   <g class="Group">
    <g class="com.sun.star.drawing.ClosedBezierShape">
     <g id="id10">
      <rect class="BoundingBox" stroke="none" fill="none" x="6270" y="11297" width="4663" height="4214"/>
      <g>
       <defs>
        <linearGradient id="gradient1" x1="6270" y1="13404" x2="10932" y2="13404" gradientUnits="userSpaceOnUse">
         <stop offset="0" style="stop-color:rgb(42,96,153)"/>
         <stop offset="1" style="stop-color:rgb(255,212,40)"/>
        </linearGradient>
       </defs>
       <path style="fill:url(#gradient1)" d="M 6469,12138 L 6463,12188 6460,12238 6461,12288 6465,12337 6472,12387 6483,12435 6497,12483 6514,12530 6534,12576 6557,12620 6582,12663 6610,12704 6641,12742 6674,12779 6710,12814 6748,12846 6789,12876 6831,12903 6874,12927 6919,12948 6965,12966 7013,12982 7061,12994 7110,13003 7160,13008 7210,13011 7259,13010 7309,13006 7358,12998 7407,12988 7455,12974 7502,12958 7548,12938 7592,12915 7635,12889 7675,12861 7714,12830 7751,12796 7786,12760 7818,12722 7848,12682 7875,12640 7899,12597 7920,12552 7938,12505 7953,12458 7965,12410 7974,12361 7980,12311 7982,12261 7982,12211 7977,12162 7970,12113 7959,12064 7946,12016 7929,11969 7909,11923 7886,11879 7860,11836 7832,11795 7801,11756 7767,11720 7731,11685 7693,11653 7653,11623 7611,11596 7568,11572 7523,11551 7477,11533 7430,11518 7381,11506 7332,11497 7282,11491 7233,11489 7183,11489 7134,11493 7085,11501 7036,11511 6988,11525 6941,11541 6895,11562 6851,11585 6808,11610 6767,11639 6728,11669 6692,11703 6657,11739 6625,11777 6595,11817 6568,11859 6544,11902 6523,11947 6504,11993 6489,12041 6477,12089 6469,12138 Z M 8072,15238 L 8090,15252 8109,15265 8129,15277 8149,15287 8170,15296 8192,15304 8214,15310 8237,15315 8259,15318 8282,15319 8305,15319 8328,15318 8350,15316 8373,15311 8395,15306 8416,15298 8438,15290 8458,15280 8478,15269 8497,15256 8515,15243 8532,15228 8548,15212 8564,15194 8578,15176 8591,15158 8602,15138 8613,15118 8622,15097 8629,15075 8635,15053 8640,15030 8643,15008 8645,14985 8645,14962 8644,14939 8641,14917 8637,14894 8631,14872 8624,14850 8615,14829 8605,14809 8594,14789 8581,14770 8567,14751 8552,14734 8536,14718 8519,14702 8501,14688 8482,14675 8463,14664 8443,14654 8422,14645 8400,14637 8378,14631 8356,14627 8333,14623 8310,14622 8287,14622 8264,14623 8242,14626 8219,14630 8197,14636 8176,14643 8155,14652 8134,14662 8114,14673 8095,14685 8077,14699 8059,14714 8043,14730 8028,14748 8014,14766 8001,14784 7989,14804 7979,14824 7970,14845 7963,14867 7957,14889 7952,14911 7949,14934 7947,14957 7947,14980 7948,15002 7951,15025 7955,15047 7961,15069 7968,15091 7977,15112 7987,15133 7998,15153 8010,15172 8024,15190 8039,15207 8055,15223 8072,15238 Z M 9781,13067 L 9803,13093 9828,13119 9854,13142 9881,13164 9910,13184 9941,13202 9972,13218 10005,13232 10038,13244 10072,13254 10106,13261 10141,13266 10176,13269 10212,13270 10247,13268 10282,13265 10317,13258 10351,13249 10385,13239 10418,13226 10449,13211 10480,13193 10510,13174 10539,13153 10565,13130 10591,13106 10614,13080 10636,13052 10656,13023 10674,12993 10690,12962 10705,12929 10716,12896 10726,12862 10733,12827 10738,12792 10741,12757 10742,12722 10740,12687 10736,12651 10730,12617 10721,12582 10711,12549 10698,12516 10683,12484 10666,12454 10647,12424 10626,12396 10603,12369 10578,12343 10552,12320 10524,12298 10495,12278 10465,12259 10434,12243 10401,12229 10368,12217 10334,12208 10299,12200 10264,12195 10229,12192 10194,12192 10159,12194 10124,12198 10089,12204 10055,12213 10021,12223 9988,12236 9956,12251 9926,12268 9896,12287 9868,12308 9841,12331 9815,12356 9792,12382 9770,12409 9750,12438 9732,12469 9716,12500 9702,12533 9690,12566 9680,12600 9672,12635 9667,12669 9664,12704 9664,12739 9666,12775 9670,12810 9676,12845 9684,12879 9695,12913 9708,12946 9723,12977 9740,13008 9759,13038 9781,13067 Z M 8889,14408 L 8709,14625 8723,14643 8737,14662 8750,14681 8762,14701 8773,14721 8783,14742 8793,14763 8801,14785 8812,14818 8821,14853 8828,14887 8832,14922 8834,14957 8834,14992 8831,15027 8826,15062 8819,15097 8810,15131 8798,15164 8784,15197 8768,15228 8750,15259 8731,15288 8709,15316 8686,15343 8661,15367 8634,15390 8606,15411 8577,15431 8546,15448 8514,15463 8481,15477 8448,15488 8413,15497 8378,15503 8343,15508 8308,15510 8273,15510 8238,15507 8203,15502 8168,15495 8134,15486 8101,15474 8068,15460 8037,15444 8007,15426 7977,15406 7950,15384 7923,15361 7899,15336 7876,15309 7855,15281 7835,15252 7818,15221 7802,15189 7789,15157 7778,15123 7769,15089 7762,15054 7758,15019 7756,14984 7756,14949 7759,14913 7764,14878 7771,14844 7780,14810 7792,14777 7805,14744 7821,14713 7839,14683 7859,14653 7881,14625 7905,14599 7930,14574 7957,14551 7985,14530 8014,14511 8045,14493 8076,14478 8109,14465 8143,14453 8177,14444 8211,14438 8246,14433 8281,14431 8317,14432 8352,14435 8387,14440 8410,14444 8433,14449 8455,14456 8478,14463 8499,14472 8521,14481 8542,14491 8562,14502 8743,14286 8889,14408 Z M 8894,14105 L 9194,13745 9340,13867 9040,14226 8894,14105 Z M 8637,12554 L 8144,12482 8131,12530 8114,12578 8096,12624 8075,12670 8051,12714 8026,12757 7998,12799 7967,12840 7927,12887 7884,12932 7838,12974 7789,13013 7738,13048 7685,13080 7630,13109 7573,13134 7514,13155 7454,13172 7393,13185 7332,13194 7270,13199 7208,13200 7145,13198 7083,13191 7021,13179 6961,13164 6902,13145 6844,13122 6788,13096 6734,13066 6681,13032 6631,12995 6584,12954 6539,12911 6497,12865 6458,12817 6423,12766 6391,12713 6362,12657 6337,12600 6316,12541 6299,12481 6286,12420 6277,12359 6271,12297 6270,12235 6273,12172 6280,12110 6292,12049 6307,11989 6326,11930 6348,11872 6375,11816 6405,11761 6439,11709 6476,11659 6517,11611 6560,11566 6606,11524 6654,11486 6705,11450 6758,11418 6814,11390 6871,11365 6930,11344 6990,11327 7050,11314 7112,11304 7174,11299 7236,11298 7298,11301 7361,11308 7422,11319 7482,11334 7541,11353 7599,11376 7655,11402 7710,11433 7762,11466 7812,11504 7860,11544 7905,11587 7947,11633 7985,11682 8021,11733 8053,11786 8081,11841 8106,11898 8124,11946 8138,11995 8150,12044 8160,12093 8167,12143 8171,12193 8173,12243 8173,12294 8665,12367 8637,12554 Z M 8900,12401 L 9514,12492 9516,12484 9519,12477 9525,12463 9544,12419 9566,12376 9590,12335 9617,12296 9647,12259 9679,12223 9713,12190 9750,12159 9788,12131 9828,12105 9870,12082 9913,12062 9957,12044 10002,12030 10049,12018 10096,12010 10143,12004 10191,12002 10239,12003 10286,12006 10333,12013 10380,12023 10426,12037 10471,12053 10515,12072 10557,12094 10598,12118 10637,12145 10675,12175 10710,12207 10743,12241 10774,12278 10803,12316 10829,12356 10852,12398 10872,12441 10889,12485 10904,12530 10915,12577 10924,12624 10930,12671 10932,12719 10931,12767 10927,12814 10920,12861 10910,12908 10897,12954 10881,12999 10862,13043 10840,13085 10816,13126 10789,13165 10759,13202 10727,13238 10693,13271 10657,13302 10618,13330 10578,13356 10536,13379 10493,13400 10449,13417 10403,13432 10357,13443 10310,13452 10262,13458 10215,13460 10167,13459 10119,13455 10072,13448 10026,13438 9980,13425 9935,13409 9896,13393 9859,13374 9822,13353 9787,13331 9491,13686 9345,13564 9646,13203 9632,13185 9603,13146 9577,13106 9554,13064 9534,13021 9516,12977 9502,12932 9490,12885 9482,12838 9477,12798 9474,12758 9474,12718 9474,12698 9476,12678 8872,12589 8900,12401 Z"/>
      </g>
     </g>
    </g>
    <g class="com.sun.star.drawing.ClosedBezierShape">
     <g id="id11">
      <rect class="BoundingBox" stroke="none" fill="none" x="9734" y="10725" width="6643" height="6694"/>
      <g>
       <defs>
        <linearGradient id="gradient2" x1="9734" y1="14072" x2="16376" y2="14072" gradientUnits="userSpaceOnUse">
         <stop offset="0" style="stop-color:rgb(255,212,40)"/>
         <stop offset="1" style="stop-color:rgb(42,96,153)"/>
        </linearGradient>
       </defs>
       <path style="fill:url(#gradient2)" d="M 9767,12145 L 9754,12086 9745,12027 9738,11967 9735,11907 9735,11848 9738,11788 9744,11728 9754,11669 9770,11595 9791,11522 9816,11451 9846,11382 9880,11316 9919,11251 9962,11189 10009,11130 10060,11074 10114,11022 10172,10973 10232,10929 10295,10888 10361,10852 10429,10820 10499,10792 10572,10769 10645,10751 10719,10738 10794,10729 10869,10726 10944,10727 11019,10733 11094,10745 11167,10761 11240,10782 11310,10807 11379,10837 11446,10871 11510,10910 11572,10953 11631,11000 11687,11051 11740,11105 11788,11163 11833,11223 11873,11286 11910,11352 11942,11420 11969,11490 11990,11554 12006,11617 12019,11682 12029,11747 12758,11731 12765,12031 12022,12048 12021,12057 12020,12066 12017,12085 12001,12159 11980,12231 11954,12302 11924,12370 11890,12437 11851,12501 11808,12563 11761,12622 11718,12669 11674,12714 11626,12756 11577,12795 12098,13605 11846,13767 11316,12943 11271,12960 11199,12983 11126,13001 11052,13015 10977,13023 10902,13027 10827,13025 10751,13019 10677,13008 10603,12992 10531,12971 10460,12945 10391,12915 10325,12881 10260,12842 10198,12799 10139,12752 10090,12708 10044,12661 10001,12612 9961,12561 9924,12508 9889,12452 9858,12395 9830,12335 9852,12318 9880,12297 9909,12278 9939,12262 9970,12247 10002,12234 10035,12223 10068,12214 10102,12207 10123,12253 10146,12296 10171,12339 10199,12379 10229,12418 10262,12455 10297,12490 10334,12524 10377,12558 10423,12590 10471,12619 10520,12644 10571,12667 10623,12685 10677,12701 10732,12713 10787,12721 10842,12726 10898,12727 10953,12724 11008,12718 11063,12708 11117,12694 11171,12677 11222,12657 11273,12634 11321,12607 11368,12577 11412,12544 11455,12508 11495,12469 11533,12428 11568,12384 11599,12339 11628,12291 11653,12242 11676,12191 11694,12138 11710,12085 11722,12030 11730,11975 11735,11919 11736,11864 11733,11808 11727,11753 11717,11698 11704,11644 11687,11591 11666,11539 11642,11489 11615,11440 11585,11394 11552,11349 11517,11307 11478,11266 11437,11229 11393,11194 11347,11162 11300,11133 11250,11108 11200,11086 11147,11067 11094,11052 11040,11040 10984,11031 10929,11027 10873,11026 10817,11028 10762,11034 10708,11044 10653,11058 10600,11075 10548,11095 10498,11119 10449,11146 10403,11176 10358,11209 10316,11245 10276,11283 10238,11324 10203,11368 10171,11414 10142,11462 10117,11511 10095,11562 10076,11614 10061,11668 10049,11723 10043,11760 10038,11798 10036,11836 10035,11874 10035,11911 10038,11949 10042,11987 10048,12025 10010,12033 9973,12043 9937,12056 9901,12070 9866,12086 9832,12104 9799,12123 9767,12145 Z M 14057,16927 L 14122,16882 14183,16833 14241,16780 14296,16724 14347,16665 14394,16602 14436,16536 14475,16467 14509,16395 14537,16322 14562,16247 14581,16171 14595,16094 14604,16017 14608,15938 14607,15859 14600,15781 14589,15703 14572,15626 14551,15551 14525,15477 14493,15405 14457,15335 14417,15267 14372,15203 14323,15141 14270,15083 14214,15029 14155,14978 14092,14931 14025,14889 13956,14850 13885,14816 13812,14787 13738,14763 13662,14744 13585,14730 13507,14721 13428,14717 13349,14718 13271,14725 13193,14736 13116,14752 13041,14774 12967,14800 12895,14831 12825,14867 12757,14907 12693,14952 12631,15001 12573,15054 12519,15110 12468,15170 12421,15233 12379,15299 12340,15367 12306,15439 12278,15512 12253,15587 12234,15663 12220,15740 12211,15818 12207,15896 12208,15976 12214,16054 12226,16132 12242,16208 12264,16284 12290,16357 12322,16429 12358,16499 12398,16567 12443,16632 12492,16693 12544,16751 12601,16806 12660,16857 12723,16904 12789,16946 12858,16985 12929,17018 13002,17047 13077,17072 13153,17091 13230,17105 13308,17114 13387,17118 13465,17117 13544,17110 13622,17099 13698,17082 13774,17061 13847,17034 13919,17003 13989,16967 14057,16927 Z M 16075,11804 L 16073,11768 16069,11733 16062,11697 16053,11663 16042,11628 16028,11595 16012,11563 15994,11531 15975,11501 15953,11472 15930,11445 15905,11419 15878,11395 15850,11373 15820,11353 15789,11335 15756,11318 15723,11304 15689,11292 15655,11282 15619,11275 15584,11270 15548,11268 15512,11267 15476,11269 15440,11273 15405,11280 15370,11289 15336,11300 15302,11313 15270,11329 15238,11347 15208,11367 15179,11388 15152,11412 15126,11437 15102,11464 15080,11492 15060,11522 15042,11553 15025,11585 15011,11619 14999,11653 14990,11687 14982,11722 14977,11758 14975,11794 14974,11830 14976,11866 14980,11902 14987,11937 14996,11972 15007,12006 15021,12039 15036,12072 15054,12103 15074,12134 15096,12162 15119,12190 15144,12215 15171,12239 15199,12261 15229,12282 15260,12300 15293,12316 15326,12331 15360,12343 15394,12352 15430,12359 15465,12364 15501,12367 15538,12367 15574,12365 15609,12361 15644,12355 15679,12346 15713,12334 15747,12321 15779,12305 15811,12287 15841,12268 15870,12246 15897,12223 15922,12197 15946,12171 15969,12142 15989,12113 16007,12081 16024,12049 16038,12016 16050,11982 16059,11947 16067,11912 16072,11876 16075,11840 16075,11804 Z M 14241,11697 L 14685,11687 14691,11651 14699,11615 14709,11579 14720,11544 14733,11510 14747,11476 14762,11443 14779,11410 14808,11362 14839,11316 14873,11272 14910,11231 14950,11192 14992,11156 15036,11122 15083,11092 15132,11064 15182,11040 15234,11019 15286,11002 15340,10988 15395,10978 15450,10971 15506,10968 15562,10969 15617,10973 15672,10981 15726,10992 15780,11007 15832,11025 15883,11047 15933,11072 15982,11101 16028,11132 16071,11167 16113,11203 16152,11243 16188,11285 16221,11329 16252,11376 16279,11425 16304,11475 16324,11527 16342,11579 16355,11633 16366,11687 16372,11743 16375,11798 16375,11854 16371,11910 16363,11965 16352,12020 16337,12073 16318,12125 16296,12177 16271,12227 16243,12275 16211,12321 16177,12365 16140,12406 16101,12445 16059,12481 16014,12514 15968,12545 15919,12572 15868,12597 15817,12617 15764,12635 15711,12649 15656,12659 15601,12666 15545,12669 15489,12668 15433,12664 15378,12656 15324,12645 15271,12630 15218,12612 15167,12590 15117,12564 15069,12536 15023,12504 14979,12470 14938,12433 14899,12394 14863,12352 14829,12307 14799,12261 14780,12229 14763,12196 14747,12162 14733,12128 14721,12093 14709,12058 14700,12023 14691,11987 14247,11997 14241,11697 Z M 13876,12006 L 13136,12022 13130,11722 13869,11705 13876,12006 Z M 12301,13919 L 12726,14580 12798,14546 12871,14516 12945,14489 13021,14467 13098,14449 13176,14434 13255,14424 13334,14419 13433,14417 13531,14422 13628,14433 13724,14451 13819,14475 13913,14505 14004,14541 14093,14583 14179,14631 14262,14685 14340,14743 14415,14806 14485,14874 14551,14947 14612,15024 14668,15105 14719,15190 14763,15277 14802,15367 14835,15459 14862,15554 14883,15649 14897,15747 14905,15845 14907,15944 14902,16042 14891,16139 14873,16235 14849,16330 14819,16424 14783,16515 14740,16604 14692,16690 14639,16772 14581,16851 14517,16926 14449,16996 14377,17062 14300,17123 14219,17179 14134,17230 14047,17274 13957,17313 13864,17346 13770,17373 13674,17394 13577,17408 13479,17416 13380,17418 13282,17413 13185,17401 13089,17383 12994,17360 12900,17329 12809,17293 12720,17251 12634,17203 12551,17150 12473,17092 12398,17028 12328,16960 12262,16887 12201,16811 12145,16729 12094,16645 12049,16557 12011,16467 11978,16375 11951,16281 11930,16185 11916,16088 11908,15989 11906,15891 11911,15793 11922,15695 11940,15599 11964,15504 11994,15411 12030,15320 12073,15231 12111,15160 12153,15093 12198,15027 12247,14964 12299,14905 12354,14847 12412,14793 12474,14742 12048,14081 12301,13919 Z"/>
      </g>
     </g>
    </g>
   </g>
   <g class="com.sun.star.drawing.PolyPolygonShape">
    <g id="id12">
     <rect class="BoundingBox" stroke="none" fill="none" x="3733" y="16476" width="6535" height="2500"/>
     <path fill="rgb(42,96,153)" stroke="none" d="M 4276,18699 L 5362,18699 5362,18975 4276,18975 4276,18699 Z M 4076,18975 L 3733,18975 3733,16476 4076,16476 4076,18699 4076,18975 Z M 6326,17533 L 7508,17533 7508,16476 7851,16476 7851,18975 7508,18975 7508,17817 6326,17817 6326,17533 Z M 6126,18975 L 5789,18975 5789,16476 6126,16476 6126,18975 Z M 9001,17682 L 10223,17682 10223,17962 9001,17962 9001,17682 Z M 9001,16476 L 10267,16476 10267,16753 9001,16753 9001,16476 Z M 8801,18975 L 8460,18975 8460,16476 8801,16476 8801,18975 Z"/>
    </g>
   </g>
  </g>
 </g>
</svg>